Coordinates
version=1
nRows=6
nColumns=34
inDegrees=yes

Units are S.I. units (second, meters, Newtons, ...)
If the header above contains a line with 'inDegrees', this indicates whether rotational values are in degrees (yes) or radians (no).

endheader
time	pelvis_tilt	pelvis_list	pelvis_rotation	pelvis_tx	pelvis_ty	pelvis_tz	hip_flexion_l	hip_adduction_l	hip_rotation_l	hip_flexion_r	hip_adduction_r	hip_rotation_r	knee_angle_l_beta	knee_angle_r_beta	knee_angle_l	knee_angle_r	ankle_angle_l	ankle_angle_r	subtalar_angle_l	subtalar_angle_r	mtp_angle_l	mtp_angle_r	lumbar_ext	lumbar_bend	lumbar_rota	shoulder_flexion_r	shoulder_adduction_r	shoulder_rotation_r	elbow_flexion_r	shoulder_flexion_l	shoulder_adduction_l	shoulder_rotation_l	elbow_flexion_l
      0.22000000	     12.09615391	      8.67826817	     -4.42489304	      0.18208920	      0.99834632	     -0.21972178	     -3.05813742	     12.99739050	     -1.94402336	    -11.99143445	    -13.70683053	     -8.46696156	      0.08449005	      0.93992895	     -4.84092300	    -53.85396201	     -6.18813493	    -14.67678055	      0.00000000	      0.00000000	      0.00000000	      0.00000000	    -22.65428653	    -11.25600983	      2.68144014	      2.05971917	     -4.33548625	     -4.66739615	     33.26809808	     -6.60821328	     -4.45923911	      0.85763124	     28.82875724
      0.23000000	     12.01051911	      8.76478609	     -4.47314185	      0.19255250	      0.99907492	     -0.22082079	     -3.87809252	     13.22779038	     -1.95786217	    -10.10502159	    -14.05679359	     -7.87099494	      0.07677442	      0.98942292	     -4.39885006	    -56.68975728	     -5.73211005	    -14.20159801	      0.00000000	      0.00000000	      0.00000000	      0.00000000	    -22.57567873	    -11.34332534	      2.50105541	      1.96619571	     -4.19664097	     -4.35477662	     32.67809369	     -6.14221330	     -4.57048211	      1.00604630	     29.52656602
      0.24000000	     12.02839903	      8.67459278	     -4.45199701	      0.20293327	      1.00002907	     -0.22191303	     -4.89333255	     13.26385031	     -1.83456773	     -8.41387610	    -14.13053625	     -7.34624496	      0.06693446	      1.03284099	     -3.83506192	    -59.17742940	     -5.27437751	    -13.36425213	      0.00000000	      0.00000000	      0.00000000	      0.00000000	    -22.62601249	    -11.22310662	      2.31653632	      1.86661513	     -4.10386243	     -3.98660397	     32.09406756	     -5.64693375	     -4.66412157	      1.13059214	     30.24363884
      0.25000000	     11.93549557	      8.58623440	     -4.49012773	      0.21302654	      1.00082431	     -0.22287349	     -5.72951583	     13.29247143	     -1.86641015	     -6.53908888	    -14.13962954	     -6.70645599	      0.05828101	      1.07336809	     -3.33925612	    -61.49946116	     -4.91794278	    -12.29286017	      0.00000000	      0.00000000	      0.00000000	      0.00000000	    -22.56927853	    -11.11250096	      2.10404400	      1.87768462	     -4.03402690	     -3.34431500	     31.42596819	     -5.15447414	     -4.73684916	      1.08016136	     30.91602307
      0.26000000	     11.94984617	      8.33641504	     -4.44087177	      0.22320595	      1.00186932	     -0.22392345	     -6.75502206	     13.14932855	     -1.81782130	     -4.91144099	    -13.91872764	     -6.22723455	      0.04816138	      1.10690391	     -2.75944389	    -63.42092226	     -4.57105405	    -10.99953326	      0.00000000	      0.00000000	      0.00000000	      0.00000000	    -22.62004401	    -10.78117281	      1.78216482	      1.90279623	     -3.96336056	     -2.75718101	     30.86385143	     -4.72068746	     -4.78509406	      1.06166470	     31.63532046
      0.27000000	     12.09726829	      7.93729746	     -4.25475566	      0.23335330	      1.00325576	     -0.22493950	     -7.97819456	     12.81622030	     -1.47433788	     -3.56717826	    -13.45987825	     -5.94217472	      0.03715816	      1.13331823	     -2.12900599	    -64.93435168	     -4.26180131	     -9.72502201	      0.00000000	      0.00000000	      0.00000000	      0.00000000	    -22.86520432	    -10.26216581	      1.48979051	      1.79862973	     -3.86051057	     -2.58606278	     30.55215605	     -4.15931970	     -4.87168788	      1.22161661	     32.25388286
